<mxfile host="app.diagrams.net" modified="2021-04-25T03:20:42.971Z" agent="5.0 (Windows NT 10.0; Win64; x64) AppleWebKit/537.36 (KHTML, like Gecko) Chrome/90.0.4430.85 Safari/537.36" etag="ktyx4CAeUjxy08Tlqqby" version="14.6.6" type="github">
  <diagram id="Ahu1lWfsLy-Kstf_tas9" name="Page-1">
    <mxGraphModel dx="1697" dy="1043" grid="1" gridSize="10" guides="1" tooltips="1" connect="1" arrows="1" fold="1" page="1" pageScale="1" pageWidth="827" pageHeight="1169" math="0" shadow="0">
      <root>
        <mxCell id="0" />
        <mxCell id="1" parent="0" />
        <mxCell id="RzItGrPprOTBNBFDB4bP-28" style="edgeStyle=orthogonalEdgeStyle;rounded=0;orthogonalLoop=1;jettySize=auto;html=1;entryX=0.5;entryY=0;entryDx=0;entryDy=0;endArrow=none;endFill=0;" edge="1" parent="1" source="RzItGrPprOTBNBFDB4bP-31" target="RzItGrPprOTBNBFDB4bP-49">
          <mxGeometry relative="1" as="geometry" />
        </mxCell>
        <mxCell id="RzItGrPprOTBNBFDB4bP-30" style="edgeStyle=orthogonalEdgeStyle;rounded=0;orthogonalLoop=1;jettySize=auto;html=1;entryX=0.75;entryY=0;entryDx=0;entryDy=0;startArrow=none;startFill=0;endArrow=none;endFill=0;exitX=0.25;exitY=1;exitDx=0;exitDy=0;" edge="1" parent="1" source="RzItGrPprOTBNBFDB4bP-31" target="RzItGrPprOTBNBFDB4bP-33">
          <mxGeometry relative="1" as="geometry" />
        </mxCell>
        <mxCell id="RzItGrPprOTBNBFDB4bP-97" style="edgeStyle=orthogonalEdgeStyle;rounded=0;orthogonalLoop=1;jettySize=auto;html=1;endArrow=none;endFill=0;entryX=0.004;entryY=0.586;entryDx=0;entryDy=0;entryPerimeter=0;" edge="1" parent="1" source="RzItGrPprOTBNBFDB4bP-31" target="RzItGrPprOTBNBFDB4bP-105">
          <mxGeometry relative="1" as="geometry">
            <mxPoint x="850" y="321" as="targetPoint" />
          </mxGeometry>
        </mxCell>
        <mxCell id="RzItGrPprOTBNBFDB4bP-31" value="&amp;lt;&amp;lt;control&amp;gt;&amp;gt;&lt;br&gt;Controller" style="rounded=0;whiteSpace=wrap;html=1;" vertex="1" parent="1">
          <mxGeometry x="570" y="291" width="120" height="60" as="geometry" />
        </mxCell>
        <mxCell id="RzItGrPprOTBNBFDB4bP-32" style="edgeStyle=orthogonalEdgeStyle;rounded=0;orthogonalLoop=1;jettySize=auto;html=1;exitX=1;exitY=0.5;exitDx=0;exitDy=0;entryX=0;entryY=0.5;entryDx=0;entryDy=0;endArrow=none;endFill=0;startArrow=none;startFill=0;" edge="1" parent="1" source="RzItGrPprOTBNBFDB4bP-33" target="RzItGrPprOTBNBFDB4bP-49">
          <mxGeometry relative="1" as="geometry" />
        </mxCell>
        <mxCell id="RzItGrPprOTBNBFDB4bP-33" value="&amp;lt;&amp;lt;boundary&amp;gt;&amp;gt;&lt;br&gt;Interface Page" style="rounded=0;whiteSpace=wrap;html=1;" vertex="1" parent="1">
          <mxGeometry x="330" y="480" width="120" height="60" as="geometry" />
        </mxCell>
        <mxCell id="RzItGrPprOTBNBFDB4bP-34" style="edgeStyle=orthogonalEdgeStyle;rounded=0;orthogonalLoop=1;jettySize=auto;html=1;endArrow=none;endFill=0;entryX=0.75;entryY=1;entryDx=0;entryDy=0;exitX=0.189;exitY=-0.017;exitDx=0;exitDy=0;exitPerimeter=0;" edge="1" parent="1" source="RzItGrPprOTBNBFDB4bP-36" target="RzItGrPprOTBNBFDB4bP-31">
          <mxGeometry relative="1" as="geometry">
            <Array as="points">
              <mxPoint x="825" y="370" />
              <mxPoint x="660" y="370" />
            </Array>
          </mxGeometry>
        </mxCell>
        <mxCell id="RzItGrPprOTBNBFDB4bP-117" style="edgeStyle=orthogonalEdgeStyle;rounded=0;orthogonalLoop=1;jettySize=auto;html=1;entryX=1.01;entryY=0.603;entryDx=0;entryDy=0;entryPerimeter=0;endArrow=none;endFill=0;" edge="1" parent="1" source="RzItGrPprOTBNBFDB4bP-36" target="RzItGrPprOTBNBFDB4bP-49">
          <mxGeometry relative="1" as="geometry" />
        </mxCell>
        <mxCell id="RzItGrPprOTBNBFDB4bP-36" value="&amp;lt;&amp;lt;boundary&amp;gt;&amp;gt;&lt;br&gt;Database Connection" style="rounded=0;whiteSpace=wrap;html=1;" vertex="1" parent="1">
          <mxGeometry x="802" y="488" width="120" height="60" as="geometry" />
        </mxCell>
        <mxCell id="RzItGrPprOTBNBFDB4bP-37" style="edgeStyle=orthogonalEdgeStyle;rounded=0;orthogonalLoop=1;jettySize=auto;html=1;exitX=0.5;exitY=0.5;exitDx=0;exitDy=0;exitPerimeter=0;endArrow=none;endFill=0;" edge="1" parent="1" source="RzItGrPprOTBNBFDB4bP-38" target="RzItGrPprOTBNBFDB4bP-36">
          <mxGeometry relative="1" as="geometry" />
        </mxCell>
        <mxCell id="RzItGrPprOTBNBFDB4bP-38" value="Database" style="shape=umlActor;verticalLabelPosition=bottom;verticalAlign=top;html=1;outlineConnect=0;" vertex="1" parent="1">
          <mxGeometry x="970" y="488" width="30" height="60" as="geometry" />
        </mxCell>
        <mxCell id="RzItGrPprOTBNBFDB4bP-39" style="edgeStyle=orthogonalEdgeStyle;rounded=0;orthogonalLoop=1;jettySize=auto;html=1;entryX=0;entryY=0.5;entryDx=0;entryDy=0;endArrow=none;endFill=0;exitX=0.75;exitY=0.1;exitDx=0;exitDy=0;exitPerimeter=0;" edge="1" parent="1" source="RzItGrPprOTBNBFDB4bP-41" target="RzItGrPprOTBNBFDB4bP-43">
          <mxGeometry relative="1" as="geometry" />
        </mxCell>
        <mxCell id="RzItGrPprOTBNBFDB4bP-40" style="edgeStyle=orthogonalEdgeStyle;rounded=0;orthogonalLoop=1;jettySize=auto;html=1;endArrow=none;endFill=0;exitX=1;exitY=0.3333333333333333;exitDx=0;exitDy=0;exitPerimeter=0;" edge="1" parent="1" source="RzItGrPprOTBNBFDB4bP-41" target="RzItGrPprOTBNBFDB4bP-33">
          <mxGeometry relative="1" as="geometry">
            <Array as="points">
              <mxPoint x="230" y="450" />
              <mxPoint x="230" y="480" />
              <mxPoint x="430" y="480" />
            </Array>
          </mxGeometry>
        </mxCell>
        <mxCell id="RzItGrPprOTBNBFDB4bP-41" value="Guest" style="shape=umlActor;verticalLabelPosition=bottom;verticalAlign=top;html=1;outlineConnect=0;" vertex="1" parent="1">
          <mxGeometry x="170" y="430" width="30" height="60" as="geometry" />
        </mxCell>
        <mxCell id="RzItGrPprOTBNBFDB4bP-42" style="edgeStyle=orthogonalEdgeStyle;rounded=0;orthogonalLoop=1;jettySize=auto;html=1;exitX=1;exitY=0.5;exitDx=0;exitDy=0;entryX=0;entryY=0.5;entryDx=0;entryDy=0;endArrow=none;endFill=0;" edge="1" parent="1" source="RzItGrPprOTBNBFDB4bP-43" target="RzItGrPprOTBNBFDB4bP-31">
          <mxGeometry relative="1" as="geometry" />
        </mxCell>
        <mxCell id="RzItGrPprOTBNBFDB4bP-43" value="&lt;&lt;boundary&gt;&gt;&#xa;Issue Request" style="swimlane;fontStyle=0;childLayout=stackLayout;horizontal=1;startSize=50;horizontalStack=0;resizeParent=1;resizeParentMax=0;resizeLast=0;collapsible=1;marginBottom=0;" vertex="1" parent="1">
          <mxGeometry x="330" y="270" width="140" height="102" as="geometry">
            <mxRectangle x="330" y="270" width="120" height="50" as="alternateBounds" />
          </mxGeometry>
        </mxCell>
        <mxCell id="RzItGrPprOTBNBFDB4bP-44" value="user&#39;s identity" style="text;align=left;verticalAlign=top;spacingLeft=4;spacingRight=4;overflow=hidden;rotatable=0;points=[[0,0.5],[1,0.5]];portConstraint=eastwest;fillColor=#ffffff;" vertex="1" parent="RzItGrPprOTBNBFDB4bP-43">
          <mxGeometry y="50" width="140" height="26" as="geometry" />
        </mxCell>
        <mxCell id="RzItGrPprOTBNBFDB4bP-45" value="issue parameter" style="text;align=left;verticalAlign=top;spacingLeft=4;spacingRight=4;overflow=hidden;rotatable=0;points=[[0,0.5],[1,0.5]];portConstraint=eastwest;fillColor=#ffffff;" vertex="1" parent="RzItGrPprOTBNBFDB4bP-43">
          <mxGeometry y="76" width="140" height="26" as="geometry" />
        </mxCell>
        <mxCell id="RzItGrPprOTBNBFDB4bP-49" value="&lt;&lt;entity&gt;&gt;&#xa;Page Maker" style="swimlane;fontStyle=0;childLayout=stackLayout;horizontal=1;startSize=50;horizontalStack=0;resizeParent=1;resizeParentMax=0;resizeLast=0;collapsible=1;marginBottom=0;" vertex="1" parent="1">
          <mxGeometry x="560" y="472" width="140" height="76" as="geometry" />
        </mxCell>
        <mxCell id="RzItGrPprOTBNBFDB4bP-50" value="archiving result" style="text;align=left;verticalAlign=top;spacingLeft=4;spacingRight=4;overflow=hidden;rotatable=0;points=[[0,0.5],[1,0.5]];portConstraint=eastwest;fillColor=#ffffff;" vertex="1" parent="RzItGrPprOTBNBFDB4bP-49">
          <mxGeometry y="50" width="140" height="26" as="geometry" />
        </mxCell>
        <mxCell id="RzItGrPprOTBNBFDB4bP-51" value="" style="verticalLabelPosition=bottom;verticalAlign=top;html=1;shape=mxgraph.basic.smiley" vertex="1" parent="1">
          <mxGeometry x="539" y="450" width="40" height="40" as="geometry" />
        </mxCell>
        <mxCell id="RzItGrPprOTBNBFDB4bP-52" value="" style="verticalLabelPosition=bottom;verticalAlign=top;html=1;shape=mxgraph.basic.smiley" vertex="1" parent="1">
          <mxGeometry x="548" y="270" width="40" height="40" as="geometry" />
        </mxCell>
        <mxCell id="RzItGrPprOTBNBFDB4bP-53" value="" style="verticalLabelPosition=bottom;verticalAlign=top;html=1;shape=mxgraph.basic.smiley" vertex="1" parent="1">
          <mxGeometry x="778" y="467" width="40" height="40" as="geometry" />
        </mxCell>
        <mxCell id="RzItGrPprOTBNBFDB4bP-55" value="" style="shape=note2;boundedLbl=1;whiteSpace=wrap;html=1;size=17;verticalAlign=top;align=center;fillColor=#ffffff;" vertex="1" parent="1">
          <mxGeometry x="310" y="251" width="40" height="40" as="geometry" />
        </mxCell>
        <mxCell id="RzItGrPprOTBNBFDB4bP-56" value="" style="shape=note2;boundedLbl=1;whiteSpace=wrap;html=1;size=17;verticalAlign=top;align=center;fillColor=#ffffff;" vertex="1" parent="1">
          <mxGeometry x="310" y="460" width="40" height="40" as="geometry" />
        </mxCell>
        <mxCell id="RzItGrPprOTBNBFDB4bP-64" value="" style="group;rotation=90;" vertex="1" connectable="0" parent="1">
          <mxGeometry x="587" y="400" width="112" height="20" as="geometry" />
        </mxCell>
        <mxCell id="RzItGrPprOTBNBFDB4bP-65" value="conveys-requests" style="text;html=1;strokeColor=none;fillColor=none;align=center;verticalAlign=middle;whiteSpace=wrap;rounded=0;rotation=-90;" vertex="1" parent="RzItGrPprOTBNBFDB4bP-64">
          <mxGeometry x="3" y="-6" width="100" height="20" as="geometry" />
        </mxCell>
        <mxCell id="RzItGrPprOTBNBFDB4bP-66" value="" style="triangle;whiteSpace=wrap;html=1;fillColor=#000000;rotation=90;" vertex="1" parent="RzItGrPprOTBNBFDB4bP-64">
          <mxGeometry x="50" y="54" width="10" height="13.33" as="geometry" />
        </mxCell>
        <mxCell id="RzItGrPprOTBNBFDB4bP-67" value="" style="group" vertex="1" connectable="0" parent="1">
          <mxGeometry x="490" y="390" width="49" height="20" as="geometry" />
        </mxCell>
        <mxCell id="RzItGrPprOTBNBFDB4bP-68" value="posts" style="text;html=1;strokeColor=none;fillColor=none;align=center;verticalAlign=middle;whiteSpace=wrap;rounded=0;" vertex="1" parent="RzItGrPprOTBNBFDB4bP-67">
          <mxGeometry x="9" width="40" height="20" as="geometry" />
        </mxCell>
        <mxCell id="RzItGrPprOTBNBFDB4bP-69" value="" style="triangle;whiteSpace=wrap;html=1;fillColor=#000000;rotation=-180;" vertex="1" parent="RzItGrPprOTBNBFDB4bP-67">
          <mxGeometry y="5.669999999999959" width="10" height="13.33" as="geometry" />
        </mxCell>
        <mxCell id="RzItGrPprOTBNBFDB4bP-70" value="" style="group" vertex="1" connectable="0" parent="1">
          <mxGeometry x="474" y="508" width="70" height="20" as="geometry" />
        </mxCell>
        <mxCell id="RzItGrPprOTBNBFDB4bP-71" value="prepares" style="text;html=1;strokeColor=none;fillColor=none;align=center;verticalAlign=middle;whiteSpace=wrap;rounded=0;" vertex="1" parent="RzItGrPprOTBNBFDB4bP-70">
          <mxGeometry x="9" width="61" height="20" as="geometry" />
        </mxCell>
        <mxCell id="RzItGrPprOTBNBFDB4bP-72" value="" style="triangle;whiteSpace=wrap;html=1;fillColor=#000000;rotation=-180;" vertex="1" parent="RzItGrPprOTBNBFDB4bP-70">
          <mxGeometry y="5.669999999999959" width="10" height="13.33" as="geometry" />
        </mxCell>
        <mxCell id="RzItGrPprOTBNBFDB4bP-81" value="" style="group;rotation=90;" vertex="1" connectable="0" parent="1">
          <mxGeometry x="780" y="410" width="112" height="20" as="geometry" />
        </mxCell>
        <mxCell id="RzItGrPprOTBNBFDB4bP-82" value="conveys-requests" style="text;html=1;strokeColor=none;fillColor=none;align=center;verticalAlign=middle;whiteSpace=wrap;rounded=0;rotation=-90;" vertex="1" parent="RzItGrPprOTBNBFDB4bP-81">
          <mxGeometry x="3" y="-6" width="100" height="20" as="geometry" />
        </mxCell>
        <mxCell id="RzItGrPprOTBNBFDB4bP-83" value="" style="triangle;whiteSpace=wrap;html=1;fillColor=#000000;rotation=90;" vertex="1" parent="RzItGrPprOTBNBFDB4bP-81">
          <mxGeometry x="50" y="54" width="10" height="13.33" as="geometry" />
        </mxCell>
        <mxCell id="RzItGrPprOTBNBFDB4bP-88" style="edgeStyle=orthogonalEdgeStyle;rounded=0;orthogonalLoop=1;jettySize=auto;html=1;endArrow=none;endFill=0;" edge="1" parent="1" source="RzItGrPprOTBNBFDB4bP-105" target="RzItGrPprOTBNBFDB4bP-36">
          <mxGeometry relative="1" as="geometry">
            <mxPoint x="880" y="351" as="sourcePoint" />
            <mxPoint x="849" y="490" as="targetPoint" />
            <Array as="points">
              <mxPoint x="920" y="460" />
              <mxPoint x="920" y="460" />
            </Array>
          </mxGeometry>
        </mxCell>
        <mxCell id="RzItGrPprOTBNBFDB4bP-89" value="" style="group;rotation=90;" vertex="1" connectable="0" parent="1">
          <mxGeometry x="876" y="410" width="112" height="20" as="geometry" />
        </mxCell>
        <mxCell id="RzItGrPprOTBNBFDB4bP-90" value="requests-save" style="text;html=1;strokeColor=none;fillColor=none;align=center;verticalAlign=middle;whiteSpace=wrap;rounded=0;rotation=-90;" vertex="1" parent="RzItGrPprOTBNBFDB4bP-89">
          <mxGeometry x="11.5" y="-14.5" width="83" height="20" as="geometry" />
        </mxCell>
        <mxCell id="RzItGrPprOTBNBFDB4bP-91" value="" style="triangle;whiteSpace=wrap;html=1;fillColor=#000000;rotation=90;" vertex="1" parent="RzItGrPprOTBNBFDB4bP-89">
          <mxGeometry x="51" y="33" width="10" height="13.33" as="geometry" />
        </mxCell>
        <mxCell id="RzItGrPprOTBNBFDB4bP-92" value="&lt;&lt;entity&gt;&gt;&#xa;E-book issue information" style="swimlane;fontStyle=0;childLayout=stackLayout;horizontal=1;startSize=50;horizontalStack=0;resizeParent=1;resizeParentMax=0;resizeLast=0;collapsible=1;marginBottom=0;" vertex="1" parent="1">
          <mxGeometry x="1100" y="276" width="140" height="154" as="geometry">
            <mxRectangle x="330" y="270" width="120" height="50" as="alternateBounds" />
          </mxGeometry>
        </mxCell>
        <mxCell id="RzItGrPprOTBNBFDB4bP-93" value="tracking number" style="text;align=left;verticalAlign=top;spacingLeft=4;spacingRight=4;overflow=hidden;rotatable=0;points=[[0,0.5],[1,0.5]];portConstraint=eastwest;fillColor=#ffffff;" vertex="1" parent="RzItGrPprOTBNBFDB4bP-92">
          <mxGeometry y="50" width="140" height="26" as="geometry" />
        </mxCell>
        <mxCell id="RzItGrPprOTBNBFDB4bP-94" value="book&#39;s id" style="text;align=left;verticalAlign=top;spacingLeft=4;spacingRight=4;overflow=hidden;rotatable=0;points=[[0,0.5],[1,0.5]];portConstraint=eastwest;fillColor=#ffffff;" vertex="1" parent="RzItGrPprOTBNBFDB4bP-92">
          <mxGeometry y="76" width="140" height="26" as="geometry" />
        </mxCell>
        <mxCell id="RzItGrPprOTBNBFDB4bP-102" value="guest&#39;s id" style="text;align=left;verticalAlign=top;spacingLeft=4;spacingRight=4;overflow=hidden;rotatable=0;points=[[0,0.5],[1,0.5]];portConstraint=eastwest;fillColor=#ffffff;" vertex="1" parent="RzItGrPprOTBNBFDB4bP-92">
          <mxGeometry y="102" width="140" height="26" as="geometry" />
        </mxCell>
        <mxCell id="RzItGrPprOTBNBFDB4bP-103" value="period" style="text;align=left;verticalAlign=top;spacingLeft=4;spacingRight=4;overflow=hidden;rotatable=0;points=[[0,0.5],[1,0.5]];portConstraint=eastwest;fillColor=#ffffff;" vertex="1" parent="RzItGrPprOTBNBFDB4bP-92">
          <mxGeometry y="128" width="140" height="26" as="geometry" />
        </mxCell>
        <mxCell id="RzItGrPprOTBNBFDB4bP-95" value="" style="shape=note2;boundedLbl=1;whiteSpace=wrap;html=1;size=17;verticalAlign=top;align=center;fillColor=#ffffff;" vertex="1" parent="1">
          <mxGeometry x="1080" y="251" width="40" height="40" as="geometry" />
        </mxCell>
        <mxCell id="RzItGrPprOTBNBFDB4bP-98" value="" style="group;rotation=0;" vertex="1" connectable="0" parent="1">
          <mxGeometry x="700" y="300" width="112" height="20" as="geometry" />
        </mxCell>
        <mxCell id="RzItGrPprOTBNBFDB4bP-99" value="conveys-requests" style="text;html=1;strokeColor=none;fillColor=none;align=center;verticalAlign=middle;whiteSpace=wrap;rounded=0;rotation=0;" vertex="1" parent="RzItGrPprOTBNBFDB4bP-98">
          <mxGeometry width="100" height="20" as="geometry" />
        </mxCell>
        <mxCell id="RzItGrPprOTBNBFDB4bP-100" value="" style="triangle;whiteSpace=wrap;html=1;fillColor=#000000;rotation=0;" vertex="1" parent="RzItGrPprOTBNBFDB4bP-98">
          <mxGeometry x="102" y="4" width="10" height="13.33" as="geometry" />
        </mxCell>
        <mxCell id="RzItGrPprOTBNBFDB4bP-101" value="" style="group" vertex="1" connectable="0" parent="1">
          <mxGeometry x="480" y="296.66" width="58" height="20" as="geometry" />
        </mxCell>
        <mxCell id="RzItGrPprOTBNBFDB4bP-57" value="receives" style="text;html=1;strokeColor=none;fillColor=none;align=center;verticalAlign=middle;whiteSpace=wrap;rounded=0;" vertex="1" parent="RzItGrPprOTBNBFDB4bP-101">
          <mxGeometry width="40" height="20" as="geometry" />
        </mxCell>
        <mxCell id="RzItGrPprOTBNBFDB4bP-58" value="" style="triangle;whiteSpace=wrap;html=1;fillColor=#000000;" vertex="1" parent="RzItGrPprOTBNBFDB4bP-101">
          <mxGeometry x="48" y="5.670000000000016" width="10" height="13.33" as="geometry" />
        </mxCell>
        <mxCell id="RzItGrPprOTBNBFDB4bP-107" style="edgeStyle=orthogonalEdgeStyle;rounded=0;orthogonalLoop=1;jettySize=auto;html=1;entryX=0;entryY=0.25;entryDx=0;entryDy=0;endArrow=none;endFill=0;" edge="1" parent="1" source="RzItGrPprOTBNBFDB4bP-105" target="RzItGrPprOTBNBFDB4bP-92">
          <mxGeometry relative="1" as="geometry" />
        </mxCell>
        <mxCell id="RzItGrPprOTBNBFDB4bP-105" value="&lt;&lt;entity&gt;&gt;&#xa;Archiver" style="swimlane;fontStyle=0;childLayout=stackLayout;horizontal=1;startSize=50;horizontalStack=0;resizeParent=1;resizeParentMax=0;resizeLast=0;collapsible=1;marginBottom=0;" vertex="1" parent="1">
          <mxGeometry x="850" y="276" width="140" height="76" as="geometry" />
        </mxCell>
        <mxCell id="RzItGrPprOTBNBFDB4bP-106" value="current tracking number" style="text;align=left;verticalAlign=top;spacingLeft=4;spacingRight=4;overflow=hidden;rotatable=0;points=[[0,0.5],[1,0.5]];portConstraint=eastwest;fillColor=#ffffff;" vertex="1" parent="RzItGrPprOTBNBFDB4bP-105">
          <mxGeometry y="50" width="140" height="26" as="geometry" />
        </mxCell>
        <mxCell id="RzItGrPprOTBNBFDB4bP-87" value="" style="verticalLabelPosition=bottom;verticalAlign=top;html=1;shape=mxgraph.basic.smiley" vertex="1" parent="1">
          <mxGeometry x="830" y="260" width="40" height="40" as="geometry" />
        </mxCell>
        <mxCell id="RzItGrPprOTBNBFDB4bP-109" value="" style="group;rotation=0;" vertex="1" connectable="0" parent="1">
          <mxGeometry x="997" y="294" width="73" height="20" as="geometry" />
        </mxCell>
        <mxCell id="RzItGrPprOTBNBFDB4bP-110" value="generates" style="text;html=1;strokeColor=none;fillColor=none;align=center;verticalAlign=middle;whiteSpace=wrap;rounded=0;rotation=0;" vertex="1" parent="RzItGrPprOTBNBFDB4bP-109">
          <mxGeometry width="65.17857142857143" height="20" as="geometry" />
        </mxCell>
        <mxCell id="RzItGrPprOTBNBFDB4bP-111" value="" style="triangle;whiteSpace=wrap;html=1;fillColor=#000000;rotation=0;" vertex="1" parent="RzItGrPprOTBNBFDB4bP-109">
          <mxGeometry x="66.48214285714286" y="4" width="6.517857142857143" height="13.33" as="geometry" />
        </mxCell>
        <mxCell id="RzItGrPprOTBNBFDB4bP-114" value="" style="group" vertex="1" connectable="0" parent="1">
          <mxGeometry x="710" y="520" width="90" height="20" as="geometry" />
        </mxCell>
        <mxCell id="RzItGrPprOTBNBFDB4bP-115" value="provides-data" style="text;html=1;strokeColor=none;fillColor=none;align=center;verticalAlign=middle;whiteSpace=wrap;rounded=0;" vertex="1" parent="RzItGrPprOTBNBFDB4bP-114">
          <mxGeometry x="4.761818181818183" width="85.23818181818183" height="20" as="geometry" />
        </mxCell>
        <mxCell id="RzItGrPprOTBNBFDB4bP-116" value="" style="triangle;whiteSpace=wrap;html=1;fillColor=#000000;rotation=-180;" vertex="1" parent="RzItGrPprOTBNBFDB4bP-114">
          <mxGeometry y="5.669999999999959" width="5.294117647058824" height="13.33" as="geometry" />
        </mxCell>
      </root>
    </mxGraphModel>
  </diagram>
</mxfile>
